<?xml version="1.0" encoding="UTF-8"?>
<svg version="1.1" xmlns="http://www.w3.org/2000/svg" width="568" height="393">
<path d="M0 0 C18.48 0 36.96 0 56 0 C73.83180428 54.99388379 73.83180428 54.99388379 81 83 C81.66 83 82.32 83 83 83 C83.37060547 82.2879541 83.74121094 81.5759082 84.12304688 80.84228516 C92.8225803 64.19657447 102.03260342 48.07622871 112.02587891 32.16357422 C115.90852561 25.94154404 119.68952176 19.65725671 123.48461914 13.3815918 C124.28887329 12.05575073 124.28887329 12.05575073 125.109375 10.703125 C125.57311523 9.93645508 126.03685547 9.16978516 126.51464844 8.37988281 C127.00481445 7.59452148 127.49498047 6.80916016 128 6 C128.42732422 4.92508301 128.85464844 3.85016602 129.29492188 2.74267578 C132.58786037 -0.59603099 133.6650083 -0.46456946 138.23730469 -0.68115234 C140.88714962 -0.68020003 143.5239587 -0.64755927 146.171875 -0.5859375 C147.57861521 -0.57474183 148.98537888 -0.56620339 150.39215088 -0.56021118 C154.08845009 -0.53734063 157.78332655 -0.47843696 161.47906494 -0.4119873 C165.25277458 -0.35052392 169.02671497 -0.32318778 172.80078125 -0.29296875 C180.20116832 -0.22868836 187.60038455 -0.1263349 195 0 C193.70751246 3.3482443 192.45226217 5.99165901 190.19921875 8.79296875 C189.64121582 9.49591064 189.08321289 10.19885254 188.50830078 10.9230957 C187.60700439 12.04397583 187.60700439 12.04397583 186.6875 13.1875 C181.85144221 19.29754627 177.14691035 25.46636962 172.625 31.8125 C167.81156117 38.55681628 162.85533637 45.17551332 157.8125 51.75 C153.02615787 57.99241967 148.31665623 64.26454288 143.78735352 70.69555664 C140.20326211 75.76481379 136.48375884 80.72778026 132.75 85.6875 C127.55900696 92.58632645 122.38333392 99.49561774 117.25 106.4375 C116.66573242 107.22406982 116.08146484 108.01063965 115.47949219 108.82104492 C114.93454102 109.55943604 114.38958984 110.29782715 113.828125 111.05859375 C113.3527832 111.70111084 112.87744141 112.34362793 112.38769531 113.00561523 C111.92975586 113.66376221 111.47181641 114.32190918 111 115 C110.44039581 115.73826019 109.88079163 116.47652039 109.30422974 117.2371521 C107.70346692 119.94484748 107.70346692 119.94484748 108.4984436 122.92228699 C108.90968475 124.00391617 109.3209259 125.08554535 109.74462891 126.19995117 C109.96762098 126.8040598 110.19061306 127.40816843 110.42036247 128.03058338 C111.16901438 130.04290004 111.94752586 132.04223927 112.7265625 134.04296875 C113.26433316 135.46952208 113.80022328 136.89678557 114.33435059 138.32470703 C115.77524014 142.16080512 117.24200867 145.98652662 118.71366119 149.81090927 C120.23087833 153.76751043 121.72334439 157.7334188 123.21826172 161.69848633 C126.50572376 170.4045269 129.82671892 179.09754159 133.15393066 187.78845215 C134.4751636 191.24203418 135.79254108 194.69708244 137.109375 198.15234375 C137.3522204 198.78945628 137.5950658 199.42656881 137.84527016 200.08298779 C139.0049368 203.12582754 140.16390552 206.16893198 141.32235718 209.2122345 C143.39182287 214.64764187 145.46741105 220.0804393 147.56103516 225.5065918 C147.9343396 226.47927002 148.30764404 227.45194824 148.69226074 228.45410156 C149.37989146 230.24576991 150.0712708 232.03600617 150.76721191 233.82446289 C151.0646228 234.60192871 151.36203369 235.37939453 151.66845703 236.18041992 C151.92756866 236.85086838 152.1866803 237.52131683 152.4536438 238.21208191 C153 240 153 240 153 243 C134.52 243 116.04 243 97 243 C86.80425485 214.1441175 77.11290758 185.21272239 68 156 C65.36052641 158.53097898 63.76395129 160.98146833 62.0234375 164.21484375 C61.44416504 165.27888428 60.86489258 166.3429248 60.26806641 167.43920898 C59.64335449 168.59364502 59.01864258 169.74808105 58.375 170.9375 C51.38303935 183.72296615 43.94248265 196.19078141 36.31112671 208.60235596 C33.58242322 213.04165767 30.87661676 217.49445748 28.1796875 221.953125 C27.58844589 222.9300808 27.58844589 222.9300808 26.98526001 223.92677307 C25.44554723 226.47114276 23.90597991 229.01559854 22.36798096 231.56100464 C21.31958306 233.2953902 20.26921711 235.02858567 19.21875 236.76171875 C18.61998047 237.75131592 18.02121094 238.74091309 17.40429688 239.76049805 C16 242 16 242 15 243 C13.03630847 243.0940067 11.06920801 243.11743381 9.10327148 243.11352539 C7.84203964 243.11344986 6.5808078 243.11337433 5.28135681 243.11329651 C3.89460206 243.1081891 2.50784771 243.10297309 1.12109375 243.09765625 C-0.28995209 243.09579201 -1.70099857 243.09436814 -3.11204529 243.09336853 C-6.83240535 243.08954379 -10.5527266 243.0797139 -14.27307129 243.06866455 C-18.06680781 243.05844948 -21.86055058 243.05387071 -25.65429688 243.04882812 C-33.10288231 243.03809158 -40.55143572 243.0210157 -48 243 C-46.41768176 238.80639555 -44.49544893 235.82818074 -41.6875 232.3125 C-37.57592227 227.09046299 -33.62306921 221.77618706 -29.75 216.375 C-25.20943092 210.05099591 -20.62852675 203.75993483 -16 197.5 C-11.46231486 191.35996829 -6.96033255 185.19645104 -2.5 179 C1.94420441 172.82805629 6.4227209 166.68302194 10.9375 160.5625 C11.5152417 159.7792334 12.0929834 158.9959668 12.68823242 158.18896484 C16.28955228 153.3101447 19.89886878 148.43729022 23.51025391 143.56591797 C25.27194097 141.17993216 27.01954271 138.78413733 28.765625 136.38671875 C30.77913227 133.62740169 32.84009673 130.92823429 34.984375 128.26953125 C35.42483154 127.70024902 35.86528809 127.1309668 36.3190918 126.54443359 C37.46437113 125.06431803 38.63911428 123.60712568 39.81640625 122.15234375 C41.13950547 118.62844583 40.96805308 118.03731146 39.85791016 114.61499023 C39.57123978 113.72447464 39.2845694 112.83395905 38.98921204 111.91645813 C37.18551175 106.59867371 35.3413455 101.29760541 33.45703125 96.0078125 C33.0110866 94.75092981 32.5653157 93.49398545 32.1197052 92.23698425 C30.93211945 88.88927479 29.74125419 85.54274067 28.54969025 82.19644547 C27.81049341 80.11936165 27.07248922 78.04185804 26.3348999 75.96420288 C21.27106347 61.7007264 16.18450438 47.4463703 10.98828125 33.23046875 C10.61063126 32.19680176 10.23298126 31.16313477 9.84388733 30.09814453 C8.09531622 25.3170728 6.33957816 20.53878721 4.57348633 15.76416016 C3.95779282 14.08888638 3.34214831 12.4135946 2.7265625 10.73828125 C2.446418 9.98814255 2.1662735 9.23800385 1.87763977 8.46513367 C0.79231051 5.50216753 0 3.18278176 0 0 Z " fill="#47BFDF" transform="translate(372,59)"/>
<path d="M0 0 C17.49 0 34.98 0 53 0 C55.56422306 7.42821892 58.12807544 14.85655424 60.68914795 22.28585815 C61.88311447 25.74911593 63.07757135 29.21220235 64.2734375 32.67480469 C67.53199656 42.11095455 70.77638214 51.55185265 74 61 C74.22908806 61.67107914 74.45817612 62.34215828 74.69420624 63.03357315 C79.87308827 78.21634695 84.96619527 93.36974071 88.875 108.9375 C89.2281753 110.31210405 89.58235116 111.68645139 89.9375 113.06054688 C90.62527059 115.72527293 91.30814459 118.391173 91.98730469 121.05810547 C93.60491537 127.38609831 95.30504068 133.69237046 97 140 C97.04898438 139.30704834 97.09796875 138.61409668 97.1484375 137.90014648 C100.23447618 96.64100645 109.00137578 56.00240508 116.77734375 15.42578125 C116.98741562 14.32694611 117.19748749 13.22811096 117.41392517 12.09597778 C117.60853836 11.08502045 117.80315155 10.07406311 118.00366211 9.0324707 C118.17272568 8.15275101 118.34178925 7.27303131 118.51597595 6.36665344 C118.95260543 4.23173748 119.47148869 2.11404524 120 0 C133.53 0 147.06 0 161 0 C159.87500265 12.37497084 159.87500265 12.37497084 158.78120422 18.14372253 C158.66207662 18.77982793 158.54294902 19.41593332 158.42021149 20.07131463 C158.02763919 22.16072597 157.62775808 24.24866415 157.2277832 26.33666992 C156.94136061 27.85276995 156.65539871 29.36895706 156.36985779 30.88522339 C155.59731937 34.98045442 154.8184063 39.07444939 154.03832269 43.16824889 C153.21520711 47.49404135 152.3981206 51.8209725 151.58036804 56.14778137 C150.02631381 64.3655454 148.46701222 72.58230441 146.90575427 80.79870254 C144.98025492 90.93332044 143.06136821 101.06918822 141.14257812 111.20507812 C139.17293538 121.60860215 137.20276555 132.01202388 135.22810364 142.41459656 C131.45917463 162.27155988 127.71786212 182.13339577 124 202 C108.49 202 92.98 202 77 202 C75.86304688 198.7103125 74.72609375 195.420625 73.5546875 192.03125 C72.80672111 189.86829899 72.05868385 187.70537248 71.31054688 185.54248047 C69.6727688 180.80749426 68.03628145 176.0720643 66.40039062 171.33642578 C62.65065764 160.48947492 58.89194578 149.64674263 55.0390625 138.8359375 C49.49396784 123.25837067 44.10901258 107.67761268 39.4375 91.8125 C39.24285156 91.15513855 39.04820312 90.4977771 38.84765625 89.82049561 C36.42837101 81.60040048 34.32934401 73.3327826 32.36352539 64.99487305 C32.13490059 64.02973534 31.90627579 63.06459763 31.67072296 62.07021332 C31.11268418 59.7137406 30.55580103 57.35700133 30 55 C29.75998512 56.62206612 29.75998512 56.62206612 29.51512146 58.27690125 C24.92957734 89.11021494 19.50125373 119.7452978 13.71166992 150.37322998 C12.60663223 156.22766481 11.50978995 162.08363526 10.41210938 167.93945312 C8.2824312 179.29442747 6.14345231 190.64761771 4 202 C-9.86 202 -23.72 202 -38 202 C-34.11746301 179.9737529 -30.00702936 157.99708977 -25.82937026 136.02530766 C-24.91674417 131.22368522 -24.00587696 126.42172912 -23.09480286 121.61981201 C-21.37850497 112.57527641 -19.66068366 103.53103089 -17.94227916 94.48689532 C-15.98210153 84.16986441 -14.02367676 73.852501 -12.06538045 63.53511286 C-8.04550187 42.35637795 -4.02325191 21.17809437 0 0 Z " fill="#139A43" transform="translate(202,78)"/>
<path d="M0 0 C49.83 0 99.66 0 151 0 C149.87373396 11.26266036 149.87373396 11.26266036 148.84375 16.59375 C148.62589844 17.72554687 148.40804687 18.85734375 148.18359375 20.0234375 C147.95800781 21.17070313 147.73242188 22.31796875 147.5 23.5 C147.27441406 24.67820312 147.04882812 25.85640625 146.81640625 27.0703125 C145.13375235 35.7324953 145.13375235 35.7324953 144 38 C126.18 38 108.36 38 90 38 C89.34 42.62 88.68 47.24 88 52 C87.58829831 54.44802907 87.16067125 56.89355406 86.70323181 59.33345032 C86.46633133 60.60495941 86.22943085 61.87646851 85.98535156 63.18650818 C85.72979952 64.54142427 85.47418217 65.89632805 85.21850586 67.2512207 C84.94372781 68.71957864 84.66920442 70.18798424 84.39491272 71.65643311 C83.6581699 75.59616696 82.91763303 79.53517815 82.1761291 83.47401834 C81.55602069 86.76993658 80.93780476 90.06620867 80.3195706 93.36247891 C78.86285404 101.12913442 77.40302616 108.89520052 75.94116211 116.66088867 C74.43272978 124.67423696 72.92942697 132.68853565 71.42860883 140.70331317 C70.13713684 147.59920558 68.84264409 154.49452608 67.54567057 161.38938588 C66.77209463 165.50193533 65.99965712 169.61469029 65.23008537 173.7279911 C64.50880851 177.58238655 63.78377233 181.43605556 63.05576134 185.28918457 C62.78873505 186.70595624 62.52305962 188.12298325 62.25880051 189.54027367 C61.89940435 191.46663831 61.53475112 193.39201999 61.16978455 195.31733704 C60.96682235 196.39700902 60.76386015 197.476681 60.55474758 198.58907032 C60 201 60 201 59 202 C57.61839885 202.0927833 56.23211962 202.11747043 54.84741211 202.11352539 C53.96657455 202.11344986 53.085737 202.11337433 52.1782074 202.11329651 C51.22092239 202.10813522 50.26363739 202.10297394 49.27734375 202.09765625 C48.30213272 202.0962413 47.32692169 202.09482635 46.32215881 202.09336853 C43.19390857 202.08775133 40.06572877 202.07519593 36.9375 202.0625 C34.82226666 202.05748722 32.70703219 202.05292393 30.59179688 202.04882812 C25.39450625 202.03777631 20.19726038 202.0206251 15 202 C16.31827456 192.18250761 17.95170014 182.46479322 19.79736328 172.73291016 C20.07377913 171.2629328 20.34992457 169.79290457 20.62582397 168.3228302 C21.3667574 164.37905297 22.11141374 160.43598733 22.85680246 156.4930501 C23.63842474 152.35486276 24.41653535 148.21601516 25.19503784 144.07723999 C26.66582424 136.260939 28.1397129 128.44522644 29.61475074 120.62972677 C31.29555353 111.72313709 32.97284554 102.81588739 34.64986062 93.90858388 C38.09603463 75.60499117 41.5470221 57.30231046 45 39 C27.84 38.67 10.68 38.34 -7 38 C-5.8740681 25.61474914 -5.8740681 25.61474914 -4.84375 20.52734375 C-4.62589844 19.44388672 -4.40804688 18.36042969 -4.18359375 17.24414062 C-3.95800781 16.15294922 -3.73242188 15.06175781 -3.5 13.9375 C-3.27441406 12.81150391 -3.04882812 11.68550781 -2.81640625 10.52539062 C-1.1409337 2.2818674 -1.1409337 2.2818674 0 0 Z " fill="#139A43" transform="translate(28,78)"/>
</svg>
